<mxfile host="app.diagrams.net" modified="2024-04-16T18:50:17.056Z" agent="Mozilla/5.0 (Windows NT 10.0; Win64; x64) AppleWebKit/537.36 (KHTML, like Gecko) Chrome/123.0.0.0 Safari/537.36" etag="gkktGVjQJcpGS2Plrbvy" version="24.2.5" type="device">
  <diagram name="Page-1" id="-y3Bae4tI20VExq_1qtj">
    <mxGraphModel dx="1012" dy="539" grid="1" gridSize="10" guides="1" tooltips="1" connect="1" arrows="1" fold="1" page="1" pageScale="1" pageWidth="827" pageHeight="1169" math="0" shadow="0">
      <root>
        <mxCell id="0" />
        <mxCell id="1" parent="0" />
        <mxCell id="9tDPQ-F5tBuBTvyauGK9-59" value="" style="rounded=0;whiteSpace=wrap;html=1;" vertex="1" parent="1">
          <mxGeometry x="180" y="370" width="160" height="190" as="geometry" />
        </mxCell>
        <mxCell id="9tDPQ-F5tBuBTvyauGK9-55" value="" style="rounded=0;whiteSpace=wrap;html=1;" vertex="1" parent="1">
          <mxGeometry x="190" y="400" width="140" height="60" as="geometry" />
        </mxCell>
        <mxCell id="9tDPQ-F5tBuBTvyauGK9-57" style="edgeStyle=orthogonalEdgeStyle;rounded=0;orthogonalLoop=1;jettySize=auto;html=1;exitX=0;exitY=0.5;exitDx=0;exitDy=0;" edge="1" parent="1" source="9tDPQ-F5tBuBTvyauGK9-44">
          <mxGeometry relative="1" as="geometry">
            <mxPoint x="140" y="499.8888888888889" as="targetPoint" />
          </mxGeometry>
        </mxCell>
        <mxCell id="9tDPQ-F5tBuBTvyauGK9-44" value="" style="rounded=0;whiteSpace=wrap;html=1;" vertex="1" parent="1">
          <mxGeometry x="190" y="470" width="140" height="60" as="geometry" />
        </mxCell>
        <mxCell id="9tDPQ-F5tBuBTvyauGK9-21" value="" style="rounded=0;whiteSpace=wrap;html=1;" vertex="1" parent="1">
          <mxGeometry x="400" y="230" width="140" height="60" as="geometry" />
        </mxCell>
        <mxCell id="9tDPQ-F5tBuBTvyauGK9-1" value="Actor" style="shape=umlActor;verticalLabelPosition=bottom;verticalAlign=top;html=1;outlineConnect=0;" vertex="1" parent="1">
          <mxGeometry x="40" y="120" width="80" height="150" as="geometry" />
        </mxCell>
        <mxCell id="9tDPQ-F5tBuBTvyauGK9-9" value="" style="rounded=0;whiteSpace=wrap;html=1;" vertex="1" parent="1">
          <mxGeometry x="190" y="80" width="140" height="230" as="geometry" />
        </mxCell>
        <mxCell id="9tDPQ-F5tBuBTvyauGK9-2" value="Face" style="rounded=1;whiteSpace=wrap;html=1;" vertex="1" parent="1">
          <mxGeometry x="200" y="110" width="120" height="40" as="geometry" />
        </mxCell>
        <mxCell id="9tDPQ-F5tBuBTvyauGK9-29" style="edgeStyle=orthogonalEdgeStyle;rounded=0;orthogonalLoop=1;jettySize=auto;html=1;exitX=1;exitY=0.5;exitDx=0;exitDy=0;entryX=0;entryY=0.5;entryDx=0;entryDy=0;" edge="1" parent="1" source="9tDPQ-F5tBuBTvyauGK9-4" target="9tDPQ-F5tBuBTvyauGK9-28">
          <mxGeometry relative="1" as="geometry" />
        </mxCell>
        <mxCell id="9tDPQ-F5tBuBTvyauGK9-4" value="Text" style="rounded=1;whiteSpace=wrap;html=1;" vertex="1" parent="1">
          <mxGeometry x="200" y="175" width="120" height="40" as="geometry" />
        </mxCell>
        <mxCell id="9tDPQ-F5tBuBTvyauGK9-5" value="Voice" style="rounded=1;whiteSpace=wrap;html=1;" vertex="1" parent="1">
          <mxGeometry x="200" y="240" width="120" height="40" as="geometry" />
        </mxCell>
        <mxCell id="9tDPQ-F5tBuBTvyauGK9-6" value="" style="endArrow=classic;html=1;rounded=0;entryX=0;entryY=0.5;entryDx=0;entryDy=0;" edge="1" parent="1" source="9tDPQ-F5tBuBTvyauGK9-1" target="9tDPQ-F5tBuBTvyauGK9-2">
          <mxGeometry width="50" height="50" relative="1" as="geometry">
            <mxPoint x="260" y="240" as="sourcePoint" />
            <mxPoint x="310" y="190" as="targetPoint" />
          </mxGeometry>
        </mxCell>
        <mxCell id="9tDPQ-F5tBuBTvyauGK9-7" value="" style="endArrow=classic;html=1;rounded=0;entryX=0;entryY=0.5;entryDx=0;entryDy=0;" edge="1" parent="1" source="9tDPQ-F5tBuBTvyauGK9-1" target="9tDPQ-F5tBuBTvyauGK9-4">
          <mxGeometry width="50" height="50" relative="1" as="geometry">
            <mxPoint x="260" y="240" as="sourcePoint" />
            <mxPoint x="310" y="190" as="targetPoint" />
          </mxGeometry>
        </mxCell>
        <mxCell id="9tDPQ-F5tBuBTvyauGK9-8" value="" style="endArrow=classic;html=1;rounded=0;entryX=0;entryY=0.5;entryDx=0;entryDy=0;" edge="1" parent="1" source="9tDPQ-F5tBuBTvyauGK9-1" target="9tDPQ-F5tBuBTvyauGK9-5">
          <mxGeometry width="50" height="50" relative="1" as="geometry">
            <mxPoint x="130" y="220" as="sourcePoint" />
            <mxPoint x="210" y="205" as="targetPoint" />
          </mxGeometry>
        </mxCell>
        <mxCell id="9tDPQ-F5tBuBTvyauGK9-10" value="WebApp" style="text;html=1;align=center;verticalAlign=middle;whiteSpace=wrap;rounded=0;" vertex="1" parent="1">
          <mxGeometry x="230" y="50" width="60" height="30" as="geometry" />
        </mxCell>
        <mxCell id="9tDPQ-F5tBuBTvyauGK9-12" value="" style="rounded=0;whiteSpace=wrap;html=1;" vertex="1" parent="1">
          <mxGeometry x="400" y="80" width="140" height="100" as="geometry" />
        </mxCell>
        <mxCell id="9tDPQ-F5tBuBTvyauGK9-13" value="Face Expression" style="rounded=1;whiteSpace=wrap;html=1;" vertex="1" parent="1">
          <mxGeometry x="410" y="90" width="120" height="40" as="geometry" />
        </mxCell>
        <mxCell id="9tDPQ-F5tBuBTvyauGK9-14" value="Face identification" style="rounded=1;whiteSpace=wrap;html=1;" vertex="1" parent="1">
          <mxGeometry x="410" y="135" width="120" height="40" as="geometry" />
        </mxCell>
        <mxCell id="9tDPQ-F5tBuBTvyauGK9-16" value="DeepFace" style="text;html=1;align=center;verticalAlign=middle;whiteSpace=wrap;rounded=0;" vertex="1" parent="1">
          <mxGeometry x="440" y="50" width="60" height="30" as="geometry" />
        </mxCell>
        <mxCell id="9tDPQ-F5tBuBTvyauGK9-18" value="" style="endArrow=classic;html=1;rounded=0;exitX=1;exitY=0.5;exitDx=0;exitDy=0;entryX=0;entryY=0.5;entryDx=0;entryDy=0;" edge="1" parent="1" source="9tDPQ-F5tBuBTvyauGK9-2" target="9tDPQ-F5tBuBTvyauGK9-12">
          <mxGeometry width="50" height="50" relative="1" as="geometry">
            <mxPoint x="390" y="240" as="sourcePoint" />
            <mxPoint x="440" y="190" as="targetPoint" />
          </mxGeometry>
        </mxCell>
        <mxCell id="9tDPQ-F5tBuBTvyauGK9-30" style="edgeStyle=orthogonalEdgeStyle;rounded=0;orthogonalLoop=1;jettySize=auto;html=1;exitX=1;exitY=0.5;exitDx=0;exitDy=0;" edge="1" parent="1" source="9tDPQ-F5tBuBTvyauGK9-19">
          <mxGeometry relative="1" as="geometry">
            <mxPoint x="560" y="220" as="targetPoint" />
          </mxGeometry>
        </mxCell>
        <mxCell id="9tDPQ-F5tBuBTvyauGK9-19" value="Text" style="rounded=1;whiteSpace=wrap;html=1;" vertex="1" parent="1">
          <mxGeometry x="410" y="240" width="120" height="40" as="geometry" />
        </mxCell>
        <mxCell id="9tDPQ-F5tBuBTvyauGK9-20" value="" style="endArrow=classic;html=1;rounded=0;exitX=1;exitY=0.5;exitDx=0;exitDy=0;entryX=0;entryY=0.5;entryDx=0;entryDy=0;" edge="1" parent="1" source="9tDPQ-F5tBuBTvyauGK9-5" target="9tDPQ-F5tBuBTvyauGK9-19">
          <mxGeometry width="50" height="50" relative="1" as="geometry">
            <mxPoint x="390" y="240" as="sourcePoint" />
            <mxPoint x="440" y="190" as="targetPoint" />
          </mxGeometry>
        </mxCell>
        <mxCell id="9tDPQ-F5tBuBTvyauGK9-23" value="Speech_recognition" style="text;html=1;align=center;verticalAlign=middle;whiteSpace=wrap;rounded=0;" vertex="1" parent="1">
          <mxGeometry x="440" y="290" width="60" height="30" as="geometry" />
        </mxCell>
        <mxCell id="9tDPQ-F5tBuBTvyauGK9-33" style="edgeStyle=orthogonalEdgeStyle;rounded=0;orthogonalLoop=1;jettySize=auto;html=1;exitX=1;exitY=0.5;exitDx=0;exitDy=0;entryX=1;entryY=0.5;entryDx=0;entryDy=0;" edge="1" parent="1" source="9tDPQ-F5tBuBTvyauGK9-24" target="9tDPQ-F5tBuBTvyauGK9-32">
          <mxGeometry relative="1" as="geometry" />
        </mxCell>
        <mxCell id="9tDPQ-F5tBuBTvyauGK9-24" value="Zephyr LLM" style="triangle;whiteSpace=wrap;html=1;" vertex="1" parent="1">
          <mxGeometry x="600" y="120" width="140" height="160" as="geometry" />
        </mxCell>
        <mxCell id="9tDPQ-F5tBuBTvyauGK9-27" value="" style="endArrow=classic;html=1;rounded=0;exitX=1;exitY=0.5;exitDx=0;exitDy=0;entryX=0.005;entryY=0.431;entryDx=0;entryDy=0;entryPerimeter=0;" edge="1" parent="1" source="9tDPQ-F5tBuBTvyauGK9-12" target="9tDPQ-F5tBuBTvyauGK9-24">
          <mxGeometry width="50" height="50" relative="1" as="geometry">
            <mxPoint x="390" y="240" as="sourcePoint" />
            <mxPoint x="440" y="190" as="targetPoint" />
          </mxGeometry>
        </mxCell>
        <mxCell id="9tDPQ-F5tBuBTvyauGK9-31" style="edgeStyle=orthogonalEdgeStyle;rounded=0;orthogonalLoop=1;jettySize=auto;html=1;exitX=1;exitY=0.5;exitDx=0;exitDy=0;entryX=0;entryY=0.5;entryDx=0;entryDy=0;" edge="1" parent="1" source="9tDPQ-F5tBuBTvyauGK9-28" target="9tDPQ-F5tBuBTvyauGK9-24">
          <mxGeometry relative="1" as="geometry" />
        </mxCell>
        <mxCell id="9tDPQ-F5tBuBTvyauGK9-28" value="" style="ellipse;whiteSpace=wrap;html=1;aspect=fixed;" vertex="1" parent="1">
          <mxGeometry x="544" y="185" width="30" height="30" as="geometry" />
        </mxCell>
        <mxCell id="9tDPQ-F5tBuBTvyauGK9-47" style="edgeStyle=orthogonalEdgeStyle;rounded=0;orthogonalLoop=1;jettySize=auto;html=1;exitX=0.5;exitY=0;exitDx=0;exitDy=0;entryX=0.5;entryY=0;entryDx=0;entryDy=0;" edge="1" parent="1" source="9tDPQ-F5tBuBTvyauGK9-32" target="9tDPQ-F5tBuBTvyauGK9-35">
          <mxGeometry relative="1" as="geometry" />
        </mxCell>
        <mxCell id="9tDPQ-F5tBuBTvyauGK9-48" style="edgeStyle=orthogonalEdgeStyle;rounded=0;orthogonalLoop=1;jettySize=auto;html=1;exitX=0.5;exitY=1;exitDx=0;exitDy=0;entryX=0.5;entryY=1;entryDx=0;entryDy=0;" edge="1" parent="1" source="9tDPQ-F5tBuBTvyauGK9-32" target="9tDPQ-F5tBuBTvyauGK9-38">
          <mxGeometry relative="1" as="geometry" />
        </mxCell>
        <mxCell id="9tDPQ-F5tBuBTvyauGK9-32" value="RESPONSE" style="rhombus;whiteSpace=wrap;html=1;" vertex="1" parent="1">
          <mxGeometry x="600" y="410" width="140" height="110" as="geometry" />
        </mxCell>
        <mxCell id="9tDPQ-F5tBuBTvyauGK9-49" style="edgeStyle=orthogonalEdgeStyle;rounded=0;orthogonalLoop=1;jettySize=auto;html=1;exitX=0;exitY=0.5;exitDx=0;exitDy=0;entryX=1;entryY=0.5;entryDx=0;entryDy=0;" edge="1" parent="1" source="9tDPQ-F5tBuBTvyauGK9-35" target="9tDPQ-F5tBuBTvyauGK9-37">
          <mxGeometry relative="1" as="geometry" />
        </mxCell>
        <mxCell id="9tDPQ-F5tBuBTvyauGK9-35" value="Text" style="rounded=1;whiteSpace=wrap;html=1;" vertex="1" parent="1">
          <mxGeometry x="410" y="410" width="120" height="40" as="geometry" />
        </mxCell>
        <mxCell id="9tDPQ-F5tBuBTvyauGK9-53" style="edgeStyle=orthogonalEdgeStyle;rounded=0;orthogonalLoop=1;jettySize=auto;html=1;exitX=0.5;exitY=1;exitDx=0;exitDy=0;entryX=0.5;entryY=0;entryDx=0;entryDy=0;" edge="1" parent="1" source="9tDPQ-F5tBuBTvyauGK9-37" target="9tDPQ-F5tBuBTvyauGK9-42">
          <mxGeometry relative="1" as="geometry" />
        </mxCell>
        <mxCell id="9tDPQ-F5tBuBTvyauGK9-37" value="Voice" style="rounded=1;whiteSpace=wrap;html=1;" vertex="1" parent="1">
          <mxGeometry x="200" y="410" width="120" height="40" as="geometry" />
        </mxCell>
        <mxCell id="9tDPQ-F5tBuBTvyauGK9-51" style="edgeStyle=orthogonalEdgeStyle;rounded=0;orthogonalLoop=1;jettySize=auto;html=1;exitX=0;exitY=0.5;exitDx=0;exitDy=0;entryX=1;entryY=0.5;entryDx=0;entryDy=0;" edge="1" parent="1" source="9tDPQ-F5tBuBTvyauGK9-38" target="9tDPQ-F5tBuBTvyauGK9-44">
          <mxGeometry relative="1" as="geometry" />
        </mxCell>
        <mxCell id="9tDPQ-F5tBuBTvyauGK9-38" value="Emotion" style="rounded=1;whiteSpace=wrap;html=1;" vertex="1" parent="1">
          <mxGeometry x="410" y="480" width="120" height="40" as="geometry" />
        </mxCell>
        <mxCell id="9tDPQ-F5tBuBTvyauGK9-42" value="visemes" style="rounded=1;whiteSpace=wrap;html=1;" vertex="1" parent="1">
          <mxGeometry x="200" y="480" width="120" height="40" as="geometry" />
        </mxCell>
        <mxCell id="9tDPQ-F5tBuBTvyauGK9-45" value="Talking head" style="text;html=1;align=center;verticalAlign=middle;whiteSpace=wrap;rounded=0;" vertex="1" parent="1">
          <mxGeometry x="220" y="530" width="80" height="30" as="geometry" />
        </mxCell>
        <mxCell id="9tDPQ-F5tBuBTvyauGK9-54" value="AVATAR" style="shape=actor;whiteSpace=wrap;html=1;" vertex="1" parent="1">
          <mxGeometry x="50" y="400" width="80" height="130" as="geometry" />
        </mxCell>
        <mxCell id="9tDPQ-F5tBuBTvyauGK9-56" value="pyttsx3" style="text;html=1;align=center;verticalAlign=middle;whiteSpace=wrap;rounded=0;" vertex="1" parent="1">
          <mxGeometry x="230" y="370" width="60" height="30" as="geometry" />
        </mxCell>
        <mxCell id="9tDPQ-F5tBuBTvyauGK9-58" style="edgeStyle=orthogonalEdgeStyle;rounded=0;orthogonalLoop=1;jettySize=auto;html=1;exitX=0;exitY=0.5;exitDx=0;exitDy=0;entryX=0.882;entryY=0.228;entryDx=0;entryDy=0;entryPerimeter=0;" edge="1" parent="1" source="9tDPQ-F5tBuBTvyauGK9-55" target="9tDPQ-F5tBuBTvyauGK9-54">
          <mxGeometry relative="1" as="geometry" />
        </mxCell>
        <mxCell id="9tDPQ-F5tBuBTvyauGK9-60" value="WebApp" style="text;html=1;align=center;verticalAlign=middle;whiteSpace=wrap;rounded=0;" vertex="1" parent="1">
          <mxGeometry x="230" y="340" width="60" height="30" as="geometry" />
        </mxCell>
      </root>
    </mxGraphModel>
  </diagram>
</mxfile>
